<?xml version="1.0" encoding="utf-8"?>
<!-- Generator: Adobe Illustrator 26.2.1, SVG Export Plug-In . SVG Version: 6.00 Build 0)  -->
<svg version="1.1" id="b" xmlns="http://www.w3.org/2000/svg" xmlns:xlink="http://www.w3.org/1999/xlink" x="0px" y="0px"
	 viewBox="0 0 595.2 98.5" style="enable-background:new 0 0 595.2 98.5;" xml:space="preserve">
<style type="text/css">
	.st0{fill:#FFFFFF;}
	.st1{fill:#1D76BB;}
	.st2{enable-background:new    ;}
	.st3{fill:#05ACDC;}
</style>
<symbol  id="a" viewBox="-204.4 -143.1 408.8 286.3">
	<g>
		<g>
			<polyline class="st0" points="201.7,59.1 204.4,56.5 201.7,54 			"/>
			<path class="st0" d="M194.1,56.5"/>
			<path class="st0" d="M-5.6,143.1"/>
		</g>
		<path class="st1" d="M-146.4,22.1c-28.5,9.7-50.4,27.1-58,33.6c5.5,4.7,18.7,15.3,36.5,24.4c10.9-8.5,27.4-18.2,51.1-24.5
			c4.1-1.1,8.2-2.1,12.3-3.1c-4.2-2.1-8.5-4.4-12.7-6.9C-128.5,39.1-138.2,30.9-146.4,22.1L-146.4,22.1z"/>
		<path class="st1" d="M-115,62.3c-34.8,9.2-53.4,26.4-60.8,34.7c6.8,0.5,18.5,1.3,32.4,1.3c11.6,0,22.6-0.5,32.8-1.4
			c2.8-5.4,7.2-10.9,13.6-16c7.3-5.8,15.4-11,23.8-15.6C-80,63.1-87,60.5-94,57.4C-101,58.8-108.1,60.5-115,62.3L-115,62.3z"/>
		<path class="st1" d="M-92.5,86.3c-10.8,8.6-16.1,19-15.8,31c0.2,5.8,1.6,10.6,2.7,13.2c8.1-1.3,34.1-5.8,57.2-14.7
			c-2.8-4.9-4.6-10.2-4.6-15.8c0-10.7,3.1-20.6,8.4-28.7c-5.9-0.6-12.2-1.7-18.7-3.3C-73.6,73-83.7,79.3-92.5,86.3L-92.5,86.3z"/>
		<path class="st1" d="M107.3,46.4c-4.1,2.4-8.3,4.6-12.4,6.7c3.7,0.9,7.4,1.8,11.1,2.8c24.1,6.4,40.8,16.3,51.7,25
			c17.8-9.1,30.9-19.6,36.4-24.3c-7.5-6.5-29.3-23.7-57.7-33.5C128.2,31.8,118.6,39.9,107.3,46.4L107.3,46.4z"/>
		<path class="st1" d="M85.8,81c6.5,5.2,10.9,10.7,13.7,16.1c10.4,1,21.5,1.5,33.1,1.5l0,0c14,0,25.6-0.7,32.4-1.3
			c-7.4-8.3-26-25.5-60.8-34.7c-6.5-1.7-13.1-3.3-19.7-4.6c-7.2,3.2-14.4,5.9-21.4,8.1C71.1,70.5,78.8,75.5,85.8,81L85.8,81z"/>
		<path class="st1" d="M41.8,100.1c0,5.6-1.8,10.9-4.6,15.9c23.2,9,49.3,13.5,57.4,14.8c2.7-6.7,8.3-27.1-13.2-44.2
			c-8.5-6.8-18.2-12.8-28.1-17.7c-6.8,1.7-13.3,2.8-19.5,3.3C38.9,80.2,41.8,89.8,41.8,100.1L41.8,100.1z"/>
		<path class="st1" d="M103.8,40.3C144.2,17,163-29.8,167.6-43.1c-6-1.2-18.9-3.2-34.6-3.2c-11.3,0-22,1-32.1,3
			c-2.7,11.7-7,23.5-13.5,34.8C68.2,24.6,43.2,49.9,21.8,58.9c2.6,1.9,4.9,4.1,7.1,6.6C50.1,64.6,77.8,55.4,103.8,40.3L103.8,40.3z"
			/>
		<path class="st1" d="M81.3-12c23.3-40.3,16.1-90.3,13.5-104.2C85.5-112.9,59.6-102.7,37-83c3.5,11.4,5.7,23.8,5.7,36.8
			c0,46.2-12.6,84.6-30.8,99.3c0.8,0.3,1.6,0.7,2.4,1.1C34.8,48.3,61.6,22.3,81.3-12L81.3-12z"/>
		<path class="st1" d="M-96.9-9c-6.6-11.4-10.9-23.4-13.6-35.1c-10.1-2-20.9-3-32.3-3c-15.8,0-28.6,2-34.6,3.2
			c4.7,13.3,23.5,60.2,63.8,83.5c25.7,14.9,53.1,24.1,74.3,25.1c2.2-2.4,4.7-4.6,7.4-6.5C-53.3,48.9-78,23.8-96.9-9L-96.9-9z"/>
		<path class="st1" d="M-52.1-46.2c0-13.1,2.3-25.6,5.8-37.1c-22.7-19.9-48.7-30.1-58-33.4c-2.6,13.9-9.8,63.9,13.5,104.2
			c19.6,34,46.2,59.9,66.7,66.1c0.8-0.4,1.5-0.7,2.3-1C-39.7,37.6-52.1-0.5-52.1-46.2L-52.1-46.2z"/>
		<path class="st1" d="M35.7-46.2c0-46.6-31.2-86.3-40.4-97c-9.2,10.7-40.4,50.4-40.4,97s13.9,86.5,31.8,96.4
			c2.5-0.4,5.1-0.7,7.7-0.7c3.1,0,6.1,0.3,9,0.9C21.6,41,35.7,0.6,35.7-46.2L35.7-46.2z"/>
		<path class="st1" d="M34.8,100.1c0-24-18.1-43.5-40.4-43.5S-46,76.1-46,100.1c0,20.9,32.9,39.2,40.4,43.1
			C1.9,139.2,34.8,120.9,34.8,100.1L34.8,100.1z"/>
	</g>
</symbol>
<g class="st2">
	<path class="st3" d="M183.7,59.3c0,1.9-0.4,3.4-1.1,4.6c-0.7,1.2-1.7,2.2-2.9,3c-1.2,0.7-2.6,1.3-4.1,1.6c-1.5,0.3-3,0.5-4.6,0.5
		h-9.1V35.1h8.3c1.5,0,2.9,0.1,4.4,0.4s2.7,0.7,3.9,1.4c1.1,0.6,2.1,1.5,2.7,2.6c0.7,1.1,1,2.5,1,4.1c0,1.5-0.3,2.7-0.9,3.7
		c-0.6,1-1.4,1.8-2.3,2.4c-1,0.6-2,1-3.1,1.3c1.2,0.2,2.5,0.6,3.7,1.2c1.2,0.6,2.2,1.4,3,2.5C183.3,55.9,183.7,57.4,183.7,59.3z
		 M177.8,43.8c0-1.9-0.6-3.3-1.8-4.1c-1.2-0.8-2.8-1.2-4.9-1.2h-5v11h5.5c2,0,3.5-0.4,4.6-1.3C177.3,47.3,177.8,45.8,177.8,43.8z
		 M179.2,59.4c0-1.7-0.3-3-1-4c-0.7-0.9-1.5-1.6-2.6-1.9c-1.1-0.4-2.3-0.5-3.6-0.5h-5.8v12.4h5.6c1.1,0,2.2-0.2,3.4-0.5
		s2.1-0.9,2.9-1.7C178.8,62.4,179.2,61.1,179.2,59.4z"/>
</g>
<g class="st2">
	<path class="st3" d="M197.9,32.6v30c0,1.3,0.4,2.2,1.2,2.7c0.8,0.5,1.8,0.8,3.1,0.8c0.8,0,1.5-0.1,2.2-0.2s1.4-0.4,2.1-0.7l1.1,3
		c-0.7,0.3-1.6,0.7-2.6,0.9s-2.2,0.4-3.5,0.4c-2.3,0-4.2-0.6-5.6-1.9c-1.4-1.3-2.1-3-2.1-5.3V35.9h-8v-3.3H197.9z"/>
	<path class="st3" d="M219.5,43v18.4c0,1.7,0.4,2.9,1.1,3.7c0.7,0.8,1.8,1.1,3.3,1.1c1.4,0,2.8-0.4,4-1.2c1.3-0.8,2.3-1.8,3-2.9V43
		h4.1V69h-3.5l-0.3-3.5c-1,1.3-2.3,2.3-3.8,3c-1.5,0.7-3,1-4.5,1c-2.5,0-4.4-0.7-5.6-2c-1.2-1.3-1.9-3.2-1.9-5.6V43H219.5z"/>
	<path class="st3" d="M246.3,57.5c0.1,3,0.9,5.2,2.4,6.6c1.5,1.4,3.2,2.1,5.2,2.1c1.3,0,2.5-0.2,3.6-0.6s2.2-1,3.3-1.7l1.9,2.7
		c-1.2,1-2.6,1.7-4.1,2.2c-1.6,0.5-3.2,0.8-4.8,0.8c-2.5,0-4.7-0.6-6.4-1.7c-1.8-1.1-3.1-2.7-4-4.7c-0.9-2-1.4-4.4-1.4-7.1
		c0-2.6,0.5-5,1.4-7c0.9-2,2.2-3.6,3.9-4.8s3.7-1.7,6-1.7c3.3,0,5.8,1.1,7.7,3.4c1.9,2.3,2.8,5.4,2.8,9.3c0,0.4,0,0.9,0,1.3
		c0,0.4,0,0.7-0.1,1H246.3z M253.3,45.9c-1.9,0-3.5,0.7-4.8,2s-2,3.5-2.2,6.3h13.5c0-2.8-0.7-4.9-1.8-6.3
		C256.8,46.6,255.3,45.9,253.3,45.9z"/>
</g>
<g class="st2">
</g>
<g class="st2">
	<path class="st3" d="M299,69V35.1h4.3v30.1h15.5l-0.5,3.8H299z"/>
</g>
<g class="st2">
	<path class="st3" d="M331.9,42.5c3.7,0,6.4,1.2,8.3,3.7c1.9,2.4,2.8,5.7,2.8,9.8c0,2.6-0.4,5-1.3,7c-0.9,2-2.1,3.6-3.8,4.8
		c-1.7,1.2-3.7,1.7-6.1,1.7c-3.7,0-6.4-1.2-8.3-3.7c-1.9-2.5-2.8-5.7-2.8-9.8c0-2.7,0.4-5,1.3-7.1c0.9-2,2.1-3.6,3.8-4.8
		C327.4,43.1,329.5,42.5,331.9,42.5z M331.9,45.9c-2.2,0-3.9,0.8-5.1,2.5c-1.1,1.7-1.7,4.2-1.7,7.7c0,3.4,0.6,6,1.7,7.6
		s2.8,2.5,5,2.5c2.2,0,3.9-0.8,5-2.5c1.1-1.7,1.7-4.2,1.7-7.7s-0.6-6-1.7-7.6C335.8,46.7,334.1,45.9,331.9,45.9z"/>
</g>
<g class="st2">
	<path class="st3" d="M370.2,67.7c-0.9,0.6-2,1.1-3.2,1.4c-1.3,0.3-2.5,0.5-3.7,0.5c-2.8,0-4.9-0.7-6.4-2.2
		c-1.5-1.5-2.3-3.3-2.3-5.6V46.2h-6V43h6v-5.9l4.1-0.5V43h9l-0.5,3.2h-8.5v15.4c0,1.4,0.4,2.5,1.1,3.3c0.8,0.8,2,1.1,3.8,1.1
		c1,0,1.9-0.1,2.7-0.3c0.8-0.2,1.6-0.5,2.3-0.9L370.2,67.7z"/>
</g>
<g class="st2">
	<path class="st3" d="M383.3,43v18.4c0,1.7,0.4,2.9,1.1,3.7c0.7,0.8,1.8,1.1,3.3,1.1c1.4,0,2.8-0.4,4-1.2c1.3-0.8,2.3-1.8,3-2.9V43
		h4.1V69h-3.5l-0.3-3.5c-1,1.3-2.3,2.3-3.8,3c-1.5,0.7-3,1-4.5,1c-2.5,0-4.4-0.7-5.6-2c-1.2-1.3-1.9-3.2-1.9-5.6V43H383.3z"/>
</g>
<g class="st2">
	<path class="st3" d="M416.6,66.1c2,0,3.6-0.4,4.7-1.1s1.7-1.7,1.7-3c0-0.8-0.1-1.4-0.4-2s-0.9-1.1-1.8-1.6
		c-0.9-0.5-2.2-0.9-4.1-1.4c-1.8-0.4-3.3-1-4.7-1.5c-1.3-0.6-2.3-1.3-3.1-2.3c-0.7-0.9-1.1-2.1-1.1-3.6c0-2.2,0.9-3.9,2.7-5.2
		s4.2-1.9,7.1-1.9c2.1,0,3.9,0.3,5.5,0.8c1.6,0.6,2.9,1.2,4,2l-1.8,2.8c-1-0.7-2-1.2-3.2-1.7c-1.2-0.4-2.6-0.7-4.3-0.7
		c-2,0-3.5,0.3-4.3,0.9c-0.9,0.6-1.3,1.4-1.3,2.4c0,0.8,0.2,1.4,0.6,1.9c0.4,0.5,1.1,0.9,2.1,1.3s2.4,0.8,4.1,1.3
		c1.7,0.5,3.2,1,4.4,1.6c1.3,0.6,2.2,1.4,2.9,2.4c0.7,1,1,2.3,1,3.9c0,1.8-0.5,3.3-1.6,4.5c-1.1,1.1-2.4,2-4.1,2.5
		c-1.7,0.5-3.4,0.8-5.3,0.8c-2.3,0-4.3-0.3-6-1s-3-1.5-4.1-2.5l2.4-2.7c1,0.8,2.2,1.5,3.5,2S415,66.1,416.6,66.1z"/>
</g>
<g class="st2">
	<path class="st1" d="M484.2,35.1l1.9,33.9H482l-1.1-17.7c-0.1-1.6-0.1-3.2-0.2-4.8c0-1.6-0.1-3.1-0.1-4.5c0-1.3,0-2.3,0-3
		l-5.7,23.9h-4.3L464.5,39c0,0.6,0.1,1.7,0.1,3.1c0,1.4,0,2.9,0,4.6s-0.1,3.2-0.1,4.6L463.6,69h-4l1.9-33.9h6l5.5,23.2l5.2-23.2
		H484.2z"/>
</g>
<g class="st2">
	<path class="st1" d="M493.9,57.5c0.1,3,0.9,5.2,2.4,6.6c1.5,1.4,3.2,2.1,5.2,2.1c1.3,0,2.5-0.2,3.6-0.6c1.1-0.4,2.2-1,3.3-1.7
		l1.9,2.7c-1.2,1-2.6,1.7-4.1,2.2c-1.6,0.5-3.2,0.8-4.8,0.8c-2.5,0-4.7-0.6-6.4-1.7c-1.8-1.1-3.1-2.7-4-4.7c-0.9-2-1.4-4.4-1.4-7.1
		c0-2.6,0.5-5,1.4-7c0.9-2,2.2-3.6,3.9-4.8s3.7-1.7,6-1.7c3.3,0,5.8,1.1,7.7,3.4s2.8,5.4,2.8,9.3c0,0.4,0,0.9,0,1.3
		c0,0.4,0,0.7-0.1,1H493.9z M500.9,45.9c-1.9,0-3.5,0.7-4.8,2c-1.3,1.4-2,3.5-2.2,6.3h13.5c0-2.8-0.7-4.9-1.8-6.3
		C504.4,46.6,502.8,45.9,500.9,45.9z"/>
</g>
<g class="st2">
	<path class="st1" d="M532.8,32.1l4.1,0.5V69h-3.6l-0.4-3.4c-1,1.4-2.1,2.4-3.3,3c-1.3,0.6-2.6,1-4,1c-2.2,0-4.1-0.6-5.6-1.7
		c-1.5-1.1-2.5-2.7-3.2-4.7c-0.7-2-1.1-4.4-1.1-7.1c0-2.6,0.4-4.9,1.2-7c0.8-2,2-3.7,3.5-4.8c1.5-1.2,3.3-1.8,5.5-1.8
		c2.9,0,5.2,1,6.9,3.1V32.1z M526.9,45.8c-2.2,0-3.8,0.8-5,2.5c-1.2,1.7-1.7,4.3-1.7,7.7c0,6.8,2.1,10.1,6.2,10.1
		c1.5,0,2.7-0.4,3.8-1.2s1.9-1.8,2.6-2.8V49.1c-0.7-1-1.6-1.9-2.6-2.4C529.2,46.1,528.1,45.8,526.9,45.8z"/>
</g>
<g class="st2">
	<path class="st1" d="M559,43v22.6h7.3V69h-19.4v-3.3h8V46.3h-7.8V43H559z M555.7,30.9c0.9,0,1.7,0.3,2.2,0.8c0.5,0.6,0.8,1.2,0.8,2
		c0,0.8-0.3,1.5-0.8,2.1c-0.5,0.6-1.3,0.8-2.2,0.8c-0.9,0-1.6-0.3-2.1-0.8c-0.6-0.6-0.8-1.3-0.8-2.1c0-0.8,0.3-1.5,0.8-2
		C554.1,31.2,554.8,30.9,555.7,30.9z"/>
</g>
<g class="st2">
	<path class="st1" d="M592,63.3c0,1,0.2,1.8,0.5,2.3c0.3,0.5,0.9,0.8,1.6,1l-1,2.9c-1.1-0.1-2.1-0.5-2.9-1.1
		c-0.8-0.6-1.4-1.4-1.8-2.6c-0.9,1.2-2.1,2.1-3.5,2.7c-1.4,0.6-2.9,0.9-4.6,0.9c-2.6,0-4.6-0.7-6.1-2.2c-1.5-1.5-2.2-3.4-2.2-5.8
		c0-2.7,1-4.7,3.1-6.2c2.1-1.4,5.1-2.1,9-2.1h3.8v-2.2c0-1.9-0.5-3.2-1.6-4c-1.1-0.8-2.6-1.2-4.5-1.2c-0.9,0-1.9,0.1-3,0.3
		s-2.4,0.5-3.7,1l-1.1-3.1c1.6-0.6,3.1-1,4.5-1.3c1.4-0.2,2.7-0.4,4-0.4c3.2,0,5.6,0.8,7.3,2.3c1.6,1.5,2.4,3.5,2.4,6.1V63.3z
		 M581.3,66.4c1.3,0,2.5-0.3,3.7-1s2.1-1.5,2.9-2.7V56h-3.7c-2.9,0-4.9,0.5-6,1.5s-1.8,2.3-1.8,4C576.3,64.7,578,66.4,581.3,66.4z"
		/>
</g>
<g>
	<defs>
		<rect id="SVGID_1_" width="139" height="97.3"/>
	</defs>
	<clipPath id="SVGID_00000043448807680853089710000014807930772420462239_">
		<use xlink:href="#SVGID_1_"  style="overflow:visible;"/>
	</clipPath>
	<g style="clip-path:url(#SVGID_00000043448807680853089710000014807930772420462239_);">
		
			<use xlink:href="#a"  width="408.8" height="286.3" x="-204.4" y="-143.1" transform="matrix(0.34 0 0 0.34 69.4892 48.6659)" style="overflow:visible;"/>
	</g>
</g>
</svg>
