<?xml version="1.0" encoding="UTF-8"?><svg id="b" xmlns="http://www.w3.org/2000/svg" xmlns:xlink="http://www.w3.org/1999/xlink" viewBox="0 0 595.18 98.53"><defs><style>.c{letter-spacing:-.02em;}.c,.d,.e,.f,.g,.h,.i{fill:#05acdc;}.d{letter-spacing:-.08em;}.j{letter-spacing:-.02em;}.j,.k,.l,.m{fill:#1d76bb;}.e,.k{letter-spacing:-.04em;}.f{letter-spacing:-.04em;}.n{fill:#fff;}.o{font-family:FiraCode-Regular, Fira Code;font-size:48px;}.g{letter-spacing:-.06em;}.m{letter-spacing:-.06em;}.h{letter-spacing:-.1em;}.i{letter-spacing:0em;}</style><symbol id="a" viewBox="0 0 408.76 286.26"><g><g><polyline class="n" points="406.12 202.2 408.76 199.67 406.12 197.15"/><path class="n" d="M398.44,199.67"/><path class="n" d="M198.77,286.26"/></g><path class="l" d="M57.96,165.22C29.43,174.94,7.53,192.29,0,198.77c5.5,4.73,18.68,15.27,36.5,24.4,10.9-8.54,27.43-18.22,51.11-24.5,4.1-1.09,8.22-2.1,12.34-3.05-4.25-2.13-8.51-4.4-12.74-6.85-11.35-6.55-21.04-14.76-29.24-23.54Z"/><path class="l" d="M89.4,205.43c-34.77,9.23-53.39,26.37-60.75,34.69,6.78,.54,18.46,1.26,32.43,1.26,11.6,0,22.55-.48,32.79-1.41,2.84-5.4,7.17-10.85,13.63-16,7.27-5.78,15.36-11.04,23.75-15.56-6.83-2.14-13.84-4.79-20.91-7.9-7,1.44-14.04,3.09-20.95,4.92Z"/><path class="l" d="M111.87,229.44c-10.8,8.6-16.13,19.03-15.82,30.99,.15,5.84,1.63,10.59,2.65,13.2,8.14-1.27,34.07-5.77,57.22-14.69-2.81-4.92-4.56-10.21-4.56-15.75,0-10.67,3.13-20.57,8.45-28.73-5.94-.57-12.2-1.68-18.69-3.29-10.32,5-20.41,11.22-29.26,18.26Z"/><path class="l" d="M311.69,189.54c-4.13,2.39-8.29,4.61-12.44,6.7,3.72,.87,7.44,1.8,11.14,2.78,24.12,6.4,40.81,16.32,51.7,24.97,17.75-9.11,30.87-19.6,36.35-24.32-7.51-6.46-29.3-23.72-57.71-33.46-8.16,8.71-17.79,16.83-29.05,23.34Z"/><path class="l" d="M290.15,224.18c6.5,5.17,10.85,10.66,13.68,16.09,10.41,.97,21.5,1.47,33.07,1.47h0c13.97,0,25.65-.72,32.43-1.26-7.35-8.32-25.98-25.46-60.75-34.69-6.5-1.72-13.1-3.28-19.69-4.65-7.23,3.2-14.4,5.91-21.38,8.09,7.99,4.39,15.69,9.43,22.63,14.95Z"/><path class="l" d="M246.17,243.2c0,5.59-1.78,10.92-4.63,15.88,23.21,8.98,49.28,13.5,57.43,14.77,2.66-6.69,8.29-27.11-13.18-44.2-8.51-6.77-18.17-12.79-28.07-17.68-6.77,1.67-13.3,2.8-19.46,3.34,4.99,8,7.91,17.58,7.91,27.88Z"/><path class="l" d="M308.19,183.48c40.39-23.32,59.14-70.17,63.79-83.49-6.02-1.15-18.85-3.17-34.63-3.17-11.34,0-22.04,1-32.06,2.97-2.72,11.65-6.99,23.52-13.51,34.81-19.15,33.18-44.19,58.4-65.62,67.42,2.57,1.94,4.95,4.15,7.1,6.59,21.24-.88,48.92-10.12,74.92-25.14Z"/><path class="l" d="M285.72,131.11c23.28-40.32,16.12-90.31,13.5-104.19-9.35,3.27-35.2,13.51-57.83,33.24,3.46,11.42,5.69,23.82,5.69,36.83,0,46.2-12.64,84.6-30.8,99.31,.79,.34,1.58,.69,2.35,1.08,20.53-5.95,47.31-31.99,67.1-66.26Z"/><path class="l" d="M107.44,134.16c-6.57-11.38-10.86-23.36-13.57-35.09-10.1-2-20.89-3.02-32.33-3.02-15.78,0-28.6,2.02-34.63,3.17,4.66,13.32,23.46,60.2,63.79,83.49,25.74,14.86,53.13,24.08,74.28,25.12,2.24-2.43,4.71-4.62,7.37-6.53-21.27-9.27-45.98-34.32-64.92-67.13Z"/><path class="l" d="M152.27,96.98c0-13.11,2.26-25.61,5.77-37.11-22.69-19.86-48.66-30.14-58.04-33.41-2.62,13.87-9.78,63.87,13.5,104.19,19.64,34.02,46.18,59.92,66.65,66.11,.76-.35,1.53-.68,2.32-.99-17.83-15.06-30.2-53.12-30.2-98.8Z"/><path class="l" d="M240.08,96.98c0-46.56-31.19-86.27-40.4-96.98-9.21,10.71-40.4,50.42-40.4,96.98s13.88,86.48,31.83,96.39c2.5-.43,5.06-.67,7.67-.67,3.08,0,6.09,.33,9.01,.93,18.17-9.46,32.3-49.88,32.3-96.65Z"/><path class="l" d="M239.17,243.2c0-23.98-18.12-43.49-40.4-43.49s-40.4,19.51-40.4,43.49c0,20.9,32.89,39.17,40.4,43.07,7.51-3.91,40.4-22.2,40.4-43.07Z"/></g></symbol></defs><text class="o" transform="translate(157.13 68.96)"><tspan class="d" x="0" y="0">B</tspan><tspan class="e" x="25.7" y="0">lue</tspan><tspan class="g" x="108.55" y="0"> </tspan><tspan class="h" x="135.21" y="0">L</tspan><tspan class="f" x="159.95" y="0">o</tspan><tspan class="i" x="187.56" y="0">t</tspan><tspan class="c" x="217.1" y="0">u</tspan><tspan class="e" x="245.68" y="0">s </tspan><tspan class="k" x="300.92" y="0">M</tspan><tspan class="m" x="328.53" y="0">e</tspan><tspan class="j" x="355.19" y="0">d</tspan><tspan class="k" x="383.77" y="0">i</tspan><tspan class="m" x="411.39" y="0">a</tspan></text><use width="408.76" height="286.26" transform="scale(.34)" xlink:href="#a"/></svg>